<svg xmlns="http://www.w3.org/2000/svg"  viewBox="0 0 16 16" width="32px" height="32px"><path d="M 1.5 3 C 0.675781 3 0 3.675781 0 4.5 L 0 10.5 C 0 11.324219 0.675781 12 1.5 12 L 13.5 12 C 14.324219 12 15 11.324219 15 10.5 L 15 4.5 C 15 3.675781 14.324219 3 13.5 3 Z M 1.5 4 L 13.5 4 C 13.78125 4 14 4.21875 14 4.5 L 14 10.5 C 14 10.78125 13.78125 11 13.5 11 L 1.5 11 C 1.21875 11 1 10.78125 1 10.5 L 1 4.5 C 1 4.21875 1.21875 4 1.5 4 Z M 2 5 L 2 6 L 3 6 L 3 5 Z M 4 5 L 4 6 L 5 6 L 5 5 Z M 6 5 L 6 6 L 7 6 L 7 5 Z M 8 5 L 8 6 L 9 6 L 9 5 Z M 10 5 L 10 6 L 11 6 L 11 5 Z M 12 5 L 12 6 L 13 6 L 13 5 Z M 2 7 L 2 8 L 3 8 L 3 7 Z M 4 7 L 4 8 L 5 8 L 5 7 Z M 6 7 L 6 8 L 7 8 L 7 7 Z M 8 7 L 8 8 L 9 8 L 9 7 Z M 10 7 L 10 8 L 11 8 L 11 7 Z M 12 7 L 12 8 L 13 8 L 13 7 Z M 5 9 L 5 10 L 10 10 L 10 9 Z M 2 9.007813 L 2 10.011719 L 4 10.011719 L 4 9.007813 Z M 11.015625 9.007813 L 11.015625 10.011719 L 13.015625 10.011719 L 13.015625 9.007813 Z"/></svg>