<?xml version='1.0' encoding='iso-8859-1'?>
<svg version="1.1" xmlns="http://www.w3.org/2000/svg" viewBox="0 0 44 44" xmlns:xlink="http://www.w3.org/1999/xlink" enable-background="new 0 0 44 44">
  <g>
    <g>
      <path fill-rule="evenodd" d="m30.5,18c-1.104,0-2,0.896-2,2v3c0,1.104 0.896,2 2,2s2-0.896 2-2v-3c0-1.104-0.896-2-2-2zm-1-4h2v-3c0-3.313-2.687-6-6-6h-16c-2.209,0-4-1.791-4-4v-1h-2v1c0,3.314 2.687,6 6,6h16c2.209,0 4,1.791 4,4v3z"/>
    </g>
  </g>
  <g>
    <g>
      <path d="m30.5,14c-5.523,0-10,4.477-10,10v10c0,5.523 4.477,10 10,10s10-4.477 10-10v-10c0-5.523-4.477-10-10-10zm8,20c0,4.418-3.581,8-8,8s-8-3.582-8-8v-10c0-4.418 3.581-8 8-8s8,3.582 8,8v10z"/>
    </g>
  </g>
</svg>
