<svg xmlns="http://www.w3.org/2000/svg" xmlns:xlink="http://www.w3.org/1999/xlink" version="1.1" width="256" height="256" viewBox="0 0 256 256" xml:space="preserve">

<defs>
</defs>
<g style="stroke: none; stroke-width: 0; stroke-dasharray: none; stroke-linecap: butt; stroke-linejoin: miter; stroke-miterlimit: 10; fill: none; fill-rule: nonzero; opacity: 1;" transform="translate(1.4065934065934016 1.4065934065934016) scale(2.81 2.81)" >
	<circle cx="77.89" cy="68.42" r="7.5" style="stroke: none; stroke-width: 1; stroke-dasharray: none; stroke-linecap: butt; stroke-linejoin: miter; stroke-miterlimit: 10; fill: rgb(6,188,66); fill-rule: nonzero; opacity: 1;" transform="  matrix(1 0 0 1 0 0) "/>
	<circle cx="21.47" cy="68.42" r="7.5" style="stroke: none; stroke-width: 1; stroke-dasharray: none; stroke-linecap: butt; stroke-linejoin: miter; stroke-miterlimit: 10; fill: #4caf50; fill-rule: nonzero; opacity: 1;" transform="  matrix(1 0 0 1 0 0) "/>
	<path d="M 89.813 50.305 l -10.818 -12.38 l -4.685 -5.27 c -0.459 -0.517 -1.118 -0.812 -1.809 -0.812 H 57.176 V 20.792 c -0.002 -3.708 -2.441 -6.714 -5.449 -6.714 H 5.448 C 2.439 14.078 0 17.084 0 20.792 v 44.737 c 0 1.788 1.176 3.237 2.626 3.237 h 5.67 h 0.765 h 1.688 c -0.004 -0.115 -0.017 -0.228 -0.017 -0.344 c 0 -5.922 4.818 -10.739 10.739 -10.739 S 32.21 62.5 32.21 68.422 c 0 0.116 -0.014 0.229 -0.017 0.344 h 3.535 h 21.446 v 0.001 h 7.819 h 2.176 c -0.004 -0.115 -0.017 -0.228 -0.017 -0.344 c 0 -5.922 4.817 -10.739 10.739 -10.739 S 88.63 62.501 88.63 68.423 c 0 0.033 -0.005 0.065 -0.005 0.098 C 89.436 68.129 90 67.306 90 66.346 v -15.12 C 90 50.906 89.932 50.595 89.813 50.305 z M 38.436 43.972 c -1.982 2.537 -6.879 6.669 -9.99 8.404 c -3.11 -1.735 -8.007 -5.867 -9.99 -8.404 c -3.911 -5.006 -5.159 -11.269 -2.188 -14.625 c 2.793 -3.155 8.082 -3.546 12.177 0.482 c 4.096 -4.028 9.385 -3.637 12.178 -0.482 C 43.595 32.702 42.347 38.966 38.436 43.972 z M 69.74 50.305 c -1.196 0 -2.165 -0.969 -2.165 -2.165 v -8.05 c 0 -1.195 0.969 -2.165 2.165 -2.165 h 6.602 l 10.28 12.38 H 69.74 z" style="stroke: none; stroke-width: 1; stroke-dasharray: none; stroke-linecap: butt; stroke-linejoin: miter; stroke-miterlimit: 10; fill: #4caf50; fill-rule: nonzero; opacity: 1;" transform=" matrix(1 0 0 1 0 0) " stroke-linecap="round" />
</g>
</svg>