<svg xmlns="http://www.w3.org/2000/svg" xmlns:xlink="http://www.w3.org/1999/xlink" version="1.1" width="256" height="256" viewBox="0 0 256 256" xml:space="preserve">

<defs>
</defs>
<g style="stroke: none; stroke-width: 0; stroke-dasharray: none; stroke-linecap: butt; stroke-linejoin: miter; stroke-miterlimit: 10; fill: none; fill-rule: nonzero; opacity: 1;" transform="translate(1.4065934065934016 1.4065934065934016) scale(2.81 2.81)" >
	<path d="M 69.839 13.331 c -10.623 -1.932 -19.892 -5.928 -27.55 -11.875 c -1.665 -1.292 -3.991 -1.292 -5.657 0 c -7.658 5.947 -16.927 9.943 -27.551 11.875 h 0 c -2.207 0.401 -3.808 2.327 -3.808 4.578 v 32.174 c 0 17.29 12.53 32.622 31.922 39.063 c 0.73 0.242 1.497 0.364 2.265 0.364 s 1.535 -0.122 2.265 -0.364 c 19.392 -6.44 31.921 -21.774 31.921 -39.063 V 17.909 C 73.647 15.657 72.045 13.732 69.839 13.331 z" style="stroke: none; stroke-width: 1; stroke-dasharray: none; stroke-linecap: butt; stroke-linejoin: miter; stroke-miterlimit: 10; fill: rgb(6,188,66); fill-rule: nonzero; opacity: 1;" transform=" matrix(1 0 0 1 0 0) " stroke-linecap="round" />
	<path d="M 64.031 19.385 c -8.592 -1.563 -16.089 -4.794 -22.283 -9.605 c -1.347 -1.045 -3.228 -1.045 -4.575 0 c -6.194 4.81 -13.691 8.042 -22.283 9.605 h 0 c -1.785 0.324 -3.08 1.882 -3.08 3.703 v 26.023 c 0 13.984 10.135 26.386 25.819 31.595 C 38.22 80.902 38.84 81 39.461 81 c 0.621 0 1.241 -0.098 1.832 -0.295 c 15.684 -5.209 25.818 -17.611 25.818 -31.595 V 23.088 C 67.111 21.267 65.816 19.71 64.031 19.385 z" style="stroke: none; stroke-width: 1; stroke-dasharray: none; stroke-linecap: butt; stroke-linejoin: miter; stroke-miterlimit: 10; fill: #4caf50; fill-rule: nonzero; opacity: 1;" transform=" matrix(1 0 0 1 0 0) " stroke-linecap="round" />
	<circle cx="73.443" cy="35.933" r="6.463" style="stroke: none; stroke-width: 1; stroke-dasharray: none; stroke-linecap: butt; stroke-linejoin: miter; stroke-miterlimit: 10; fill: 	rgb(255,255,51); fill-rule: nonzero; opacity: 1;" transform="  matrix(1 0 0 1 0 0) "/>
	<path d="M 84.519 35.173 H 80.62 c -0.149 -1.423 -0.715 -2.723 -1.57 -3.779 l 2.76 -2.76 c 0.296 -0.296 0.296 -0.777 0 -1.073 c -0.296 -0.296 -0.776 -0.296 -1.073 0 l -2.76 2.76 c -1.056 -0.856 -2.356 -1.421 -3.779 -1.57 v -3.898 c 0 -0.419 -0.34 -0.759 -0.759 -0.759 s -0.759 0.34 -0.759 0.759 v 3.898 c -1.423 0.149 -2.723 0.715 -3.779 1.57 l -2.76 -2.76 c -0.296 -0.296 -0.777 -0.296 -1.073 0 c -0.296 0.296 -0.296 0.777 0 1.073 l 2.76 2.76 c -0.856 1.056 -1.421 2.356 -1.57 3.779 H 62.36 c -0.419 0 -0.759 0.34 -0.759 0.759 s 0.34 0.759 0.759 0.759 h 3.898 c 0.149 1.423 0.715 2.723 1.57 3.779 l -2.76 2.76 c -0.296 0.296 -0.296 0.777 0 1.073 c 0.148 0.148 0.342 0.222 0.536 0.222 s 0.388 -0.074 0.536 -0.222 l 2.76 -2.76 c 1.056 0.856 2.356 1.421 3.779 1.571 v 3.898 c 0 0.419 0.34 0.759 0.759 0.759 s 0.759 -0.34 0.759 -0.759 v -3.898 c 1.423 -0.149 2.723 -0.715 3.779 -1.571 l 2.76 2.76 c 0.148 0.148 0.342 0.222 0.536 0.222 s 0.388 -0.074 0.536 -0.222 c 0.296 -0.296 0.296 -0.777 0 -1.073 l -2.76 -2.76 c 0.856 -1.056 1.421 -2.356 1.57 -3.779 h 3.898 c 0.419 0 0.759 -0.34 0.759 -0.759 S 84.937 35.173 84.519 35.173 z M 73.439 41.636 c -3.146 0 -5.704 -2.559 -5.704 -5.705 s 2.559 -5.704 5.704 -5.704 s 5.704 2.559 5.704 5.704 S 76.585 41.636 73.439 41.636 z" style="stroke: none; stroke-width: 1; stroke-dasharray: none; stroke-linecap: butt; stroke-linejoin: miter; stroke-miterlimit: 10; fill: rgb(0,0,0); fill-rule: nonzero; opacity: 1;" transform=" matrix(1 0 0 1 0 0) " stroke-linecap="round" />
	<path d="M 39.461 90 c -0.851 0 -1.689 -0.135 -2.49 -0.401 c -19.59 -6.506 -32.248 -22.03 -32.248 -39.546 V 18.075 c 0 -2.605 1.854 -4.833 4.409 -5.296 C 19.568 10.88 28.67 6.958 36.184 1.123 c 1.929 -1.497 4.623 -1.497 6.553 0 c 7.514 5.836 16.615 9.757 27.053 11.656 c 2.555 0.463 4.408 2.691 4.408 5.296 c 0 0.419 -0.34 0.759 -0.759 0.759 s -0.759 -0.34 -0.759 -0.759 c 0 -1.871 -1.33 -3.471 -3.161 -3.803 c -10.68 -1.943 -20.004 -5.964 -27.712 -11.95 c -1.381 -1.071 -3.311 -1.071 -4.692 0 c -7.709 5.986 -17.033 10.007 -27.713 11.95 C 7.57 14.604 6.24 16.204 6.24 18.075 v 31.978 c 0 16.852 12.25 31.809 31.209 38.106 c 1.294 0.431 2.729 0.431 4.024 0 c 16.778 -5.572 28.587 -18.189 30.819 -32.929 c 0.062 -0.414 0.446 -0.697 0.863 -0.636 c 0.414 0.062 0.699 0.45 0.636 0.863 c -2.318 15.308 -14.517 28.39 -31.84 34.142 C 41.149 89.865 40.311 90 39.461 90 z" style="stroke: none; stroke-width: 1; stroke-dasharray: none; stroke-linecap: butt; stroke-linejoin: miter; stroke-miterlimit: 10; fill: #4caf50; fill-rule: nonzero; opacity: 1;" transform=" matrix(1 0 0 1 0 0) " stroke-linecap="round" />
	<path d="M 39.461 81.454 c -0.702 0 -1.394 -0.112 -2.055 -0.331 c -15.866 -5.27 -26.118 -17.849 -26.118 -32.046 v -25.8 c 0 -2.172 1.547 -4.031 3.677 -4.417 c 8.398 -1.528 15.72 -4.682 21.763 -9.375 c 1.609 -1.25 3.857 -1.25 5.467 0 c 3.386 2.629 7.213 4.797 11.376 6.444 c 3.236 1.28 6.731 2.266 10.387 2.932 c 0.413 0.075 0.687 0.47 0.612 0.882 c -0.075 0.413 -0.476 0.687 -0.882 0.611 c -3.755 -0.683 -7.346 -1.697 -10.674 -3.014 c -4.296 -1.699 -8.25 -3.939 -11.749 -6.656 c -1.062 -0.824 -2.544 -0.824 -3.605 0 c -6.238 4.845 -13.782 8.098 -22.423 9.67 c -1.409 0.256 -2.431 1.486 -2.431 2.925 v 25.8 c 0 13.532 9.844 25.545 25.079 30.606 c 1.014 0.338 2.142 0.338 3.154 0 c 13.388 -4.446 22.865 -14.501 24.734 -26.242 c 0.065 -0.414 0.453 -0.699 0.868 -0.629 c 0.414 0.065 0.695 0.454 0.629 0.868 c -1.958 12.302 -11.826 22.818 -25.753 27.443 C 40.856 81.342 40.164 81.454 39.461 81.454 z" style="stroke: none; stroke-width: 1; stroke-dasharray: none; stroke-linecap: butt; stroke-linejoin: miter; stroke-miterlimit: 10; fill: #3b753d; fill-rule: nonzero; opacity: 1;" transform=" matrix(1 0 0 1 0 0) " stroke-linecap="round" />
</g>
</svg>