<svg xmlns="http://www.w3.org/2000/svg" xmlns:xlink="http://www.w3.org/1999/xlink" version="1.1" width="256" height="256" viewBox="0 0 256 256" xml:space="preserve">

<defs>
</defs>
<g style="stroke: none; stroke-width: 0; stroke-dasharray: none; stroke-linecap: butt; stroke-linejoin: miter; stroke-miterlimit: 10; fill: none; fill-rule: nonzero; opacity: 1;" transform="translate(1.4065934065934016 1.4065934065934016) scale(2.81 2.81)" >
	<path d="M 74.084 64.099 H 28.258 c -3.995 0 -7.448 -2.787 -8.291 -6.692 l -6.817 -31.571 H 89 l -6.614 31.523 C 81.561 61.286 78.098 64.099 74.084 64.099 z" style="stroke: none; stroke-width: 1; stroke-dasharray: none; stroke-linecap: butt; stroke-linejoin: miter; stroke-miterlimit: 10; fill: rgb(177,220,232); fill-rule: nonzero; opacity: 1;" transform=" matrix(1 0 0 1 0 0) " stroke-linecap="round" />
	<circle cx="27.994" cy="77.964" r="6.354" style="stroke: none; stroke-width: 1; stroke-dasharray: none; stroke-linecap: butt; stroke-linejoin: miter; stroke-miterlimit: 10; fill: rgb(116,139,150); fill-rule: nonzero; opacity: 1;" transform="  matrix(1 0 0 1 0 0) "/>
	<circle cx="73.584" cy="77.964" r="6.354" style="stroke: none; stroke-width: 1; stroke-dasharray: none; stroke-linecap: butt; stroke-linejoin: miter; stroke-miterlimit: 10; fill: rgb(116,139,150); fill-rule: nonzero; opacity: 1;" transform="  matrix(1 0 0 1 0 0) "/>
	<rect x="24" y="14.53" rx="0" ry="0" width="20.18" height="11.3" style="stroke: none; stroke-width: 1; stroke-dasharray: none; stroke-linecap: butt; stroke-linejoin: miter; stroke-miterlimit: 10; fill: rgb(253,216,53); fill-rule: nonzero; opacity: 1;" transform=" matrix(1 0 0 1 0 0) "/>
	<polygon points="66.63,25.84 66.63,5.69 36.38,5.69 36.38,14.53 44.19,14.53 44.19,25.84 " style="stroke: none; stroke-width: 1; stroke-dasharray: none; stroke-linecap: butt; stroke-linejoin: miter; stroke-miterlimit: 10; fill: rgb(255,102,139); fill-rule: nonzero; opacity: 1;" transform="  matrix(1 0 0 1 0 0) "/>
	<path d="M 78.376 25.836 c 0 -6.485 -5.257 -11.743 -11.743 -11.743 v 11.743 H 78.376 z" style="stroke: none; stroke-width: 1; stroke-dasharray: none; stroke-linecap: butt; stroke-linejoin: miter; stroke-miterlimit: 10; fill: rgb(0,221,194); fill-rule: nonzero; opacity: 1;" transform=" matrix(1 0 0 1 0 0) " stroke-linecap="round" />
	<path d="M 74.084 65.099 H 28.258 c -4.435 0 -8.333 -3.146 -9.269 -7.48 l -6.816 -31.571 c -0.064 -0.295 0.01 -0.604 0.199 -0.839 c 0.19 -0.235 0.476 -0.372 0.778 -0.372 H 89 c 0.301 0 0.587 0.136 0.776 0.37 s 0.265 0.541 0.202 0.836 l -6.614 31.522 C 82.448 61.93 78.545 65.099 74.084 65.099 z M 14.39 26.836 l 6.555 30.36 c 0.739 3.42 3.814 5.902 7.313 5.902 h 45.826 c 3.521 0 6.601 -2.501 7.323 -5.945 l 6.361 -30.317 H 14.39 z" style="stroke: none; stroke-width: 1; stroke-dasharray: none; stroke-linecap: butt; stroke-linejoin: miter; stroke-miterlimit: 10; fill: rgb(0,0,0); fill-rule: nonzero; opacity: 1;" transform=" matrix(1 0 0 1 0 0) " stroke-linecap="round" />
	<path d="M 27.99 85.313 c -4.055 0 -7.354 -3.299 -7.354 -7.354 c 0 -4.056 3.299 -7.354 7.354 -7.354 c 4.055 0 7.354 3.299 7.354 7.354 C 35.344 82.014 32.045 85.313 27.99 85.313 z M 27.99 72.604 c -2.952 0 -5.354 2.402 -5.354 5.354 s 2.401 5.354 5.354 5.354 s 5.354 -2.401 5.354 -5.354 S 30.942 72.604 27.99 72.604 z" style="stroke: none; stroke-width: 1; stroke-dasharray: none; stroke-linecap: butt; stroke-linejoin: miter; stroke-miterlimit: 10; fill: rgb(0,0,0); fill-rule: nonzero; opacity: 1;" transform=" matrix(1 0 0 1 0 0) " stroke-linecap="round" />
	<path d="M 73.587 85.313 c -4.056 0 -7.354 -3.299 -7.354 -7.354 c 0 -4.056 3.299 -7.354 7.354 -7.354 c 4.055 0 7.354 3.299 7.354 7.354 C 80.94 82.014 77.642 85.313 73.587 85.313 z M 73.587 72.604 c -2.952 0 -5.354 2.402 -5.354 5.354 s 2.402 5.354 5.354 5.354 s 5.354 -2.401 5.354 -5.354 S 76.539 72.604 73.587 72.604 z" style="stroke: none; stroke-width: 1; stroke-dasharray: none; stroke-linecap: butt; stroke-linejoin: miter; stroke-miterlimit: 10; fill: rgb(0,0,0); fill-rule: nonzero; opacity: 1;" transform=" matrix(1 0 0 1 0 0) " stroke-linecap="round" />
	<path d="M 13.15 26.836 c -0.461 0 -0.875 -0.32 -0.977 -0.789 l -1.328 -6.149 c -0.579 -2.679 -2.988 -4.624 -5.729 -4.624 H 1 c -0.552 0 -1 -0.448 -1 -1 s 0.448 -1 1 -1 h 4.117 c 3.676 0 6.907 2.608 7.684 6.202 l 1.328 6.149 c 0.117 0.54 -0.227 1.072 -0.767 1.188 C 13.291 26.829 13.22 26.836 13.15 26.836 z" style="stroke: none; stroke-width: 1; stroke-dasharray: none; stroke-linecap: butt; stroke-linejoin: miter; stroke-miterlimit: 10; fill: rgb(0,0,0); fill-rule: nonzero; opacity: 1;" transform=" matrix(1 0 0 1 0 0) " stroke-linecap="round" />
	<path d="M 44.188 26.836 H 24.004 c -0.552 0 -1 -0.448 -1 -1 V 14.53 c 0 -0.552 0.448 -1 1 -1 h 20.184 c 0.552 0 1 0.448 1 1 v 11.306 C 45.188 26.388 44.741 26.836 44.188 26.836 z M 25.004 24.836 h 18.184 V 15.53 H 25.004 V 24.836 z" style="stroke: none; stroke-width: 1; stroke-dasharray: none; stroke-linecap: butt; stroke-linejoin: miter; stroke-miterlimit: 10; fill: rgb(0,0,0); fill-rule: nonzero; opacity: 1;" transform=" matrix(1 0 0 1 0 0) " stroke-linecap="round" />
	<path d="M 66.633 26.836 H 44.188 c -0.552 0 -1 -0.448 -1 -1 V 15.53 h -6.807 c -0.552 0 -1 -0.448 -1 -1 V 5.688 c 0 -0.552 0.448 -1 1 -1 h 30.251 c 0.553 0 1 0.448 1 1 v 20.148 C 67.633 26.388 67.186 26.836 66.633 26.836 z M 45.188 24.836 h 20.444 V 6.688 H 37.381 v 6.843 h 6.807 c 0.552 0 1 0.448 1 1 V 24.836 z" style="stroke: none; stroke-width: 1; stroke-dasharray: none; stroke-linecap: butt; stroke-linejoin: miter; stroke-miterlimit: 10; fill: rgb(0,0,0); fill-rule: nonzero; opacity: 1;" transform=" matrix(1 0 0 1 0 0) " stroke-linecap="round" />
	<path d="M 78.376 26.836 c -0.553 0 -1 -0.448 -1 -1 c 0 -5.924 -4.819 -10.743 -10.743 -10.743 c -0.553 0 -1 -0.448 -1 -1 s 0.447 -1 1 -1 c 7.026 0 12.743 5.717 12.743 12.743 C 79.376 26.388 78.929 26.836 78.376 26.836 z" style="stroke: none; stroke-width: 1; stroke-dasharray: none; stroke-linecap: butt; stroke-linejoin: miter; stroke-miterlimit: 10; fill: rgb(0,0,0); fill-rule: nonzero; opacity: 1;" transform=" matrix(1 0 0 1 0 0) " stroke-linecap="round" />
	<path d="M 51.075 54.654 c -0.553 0 -1 -0.447 -1 -1 V 34.595 c 0 -0.552 0.447 -1 1 -1 s 1 0.448 1 1 v 19.059 C 52.075 54.207 51.628 54.654 51.075 54.654 z" style="stroke: none; stroke-width: 1; stroke-dasharray: none; stroke-linecap: butt; stroke-linejoin: miter; stroke-miterlimit: 10; fill: rgb(0,0,0); fill-rule: nonzero; opacity: 1;" transform=" matrix(1 0 0 1 0 0) " stroke-linecap="round" />
	<path d="M 66.668 54.654 c -0.038 0 -0.077 -0.002 -0.117 -0.007 c -0.549 -0.064 -0.941 -0.561 -0.877 -1.109 l 2.228 -19.059 c 0.064 -0.547 0.549 -0.944 1.109 -0.877 c 0.549 0.064 0.941 0.561 0.877 1.109 L 67.66 53.771 C 67.601 54.279 67.169 54.654 66.668 54.654 z" style="stroke: none; stroke-width: 1; stroke-dasharray: none; stroke-linecap: butt; stroke-linejoin: miter; stroke-miterlimit: 10; fill: rgb(0,0,0); fill-rule: nonzero; opacity: 1;" transform=" matrix(1 0 0 1 0 0) " stroke-linecap="round" />
	<path d="M 35.482 54.654 c -0.477 0 -0.899 -0.342 -0.984 -0.827 l -3.341 -19.059 c -0.096 -0.544 0.268 -1.063 0.812 -1.158 c 0.55 -0.096 1.063 0.269 1.158 0.812 l 3.341 19.059 c 0.096 0.544 -0.268 1.063 -0.812 1.158 C 35.598 54.649 35.54 54.654 35.482 54.654 z" style="stroke: none; stroke-width: 1; stroke-dasharray: none; stroke-linecap: butt; stroke-linejoin: miter; stroke-miterlimit: 10; fill: rgb(0,0,0); fill-rule: nonzero; opacity: 1;" transform=" matrix(1 0 0 1 0 0) " stroke-linecap="round" />
</g>
</svg>