<svg xmlns="http://www.w3.org/2000/svg" xmlns:xlink="http://www.w3.org/1999/xlink" version="1.1" width="256" height="256" viewBox="0 0 256 256" xml:space="preserve">

<defs>
</defs>
<g style="stroke: none; stroke-width: 0; stroke-dasharray: none; stroke-linecap: butt; stroke-linejoin: miter; stroke-miterlimit: 10; fill: none; fill-rule: nonzero; opacity: 1;" transform="translate(1.4065934065934016 1.4065934065934016) scale(2.81 2.81)" >
	<path d="M 45 0 C 20.187 0 0 20.187 0 45 c 0 24.813 20.187 45 45 45 c 24.813 0 45 -20.187 45 -45 C 90 20.187 69.813 0 45 0 z M 64.328 58.672 c 1.563 1.562 1.563 4.095 0 5.656 c -0.78 0.781 -1.805 1.172 -2.828 1.172 s -2.048 -0.391 -2.828 -1.172 L 45 50.657 L 31.329 64.328 C 30.547 65.109 29.524 65.5 28.5 65.5 s -2.047 -0.391 -2.829 -1.172 c -1.562 -1.562 -1.562 -4.095 0 -5.656 L 39.343 45 L 25.671 31.329 c -1.562 -1.563 -1.562 -4.095 0 -5.657 c 1.563 -1.562 4.095 -1.562 5.657 0 L 45 39.343 l 13.672 -13.672 c 1.561 -1.562 4.096 -1.562 5.656 0 c 1.563 1.563 1.563 4.095 0 5.657 L 50.657 45 L 64.328 58.672 z" style="stroke: none; stroke-width: 1; stroke-dasharray: none; stroke-linecap: butt; stroke-linejoin: miter; stroke-miterlimit: 10; fill: #000; fill-rule: nonzero; opacity: 1;" transform=" matrix(1 0 0 1 0 0) " stroke-linecap="round" />
</g>
</svg>