<svg id="Capa_1" data-name="Capa 1" xmlns="http://www.w3.org/2000/svg" viewBox="0 0 80 50" fit="" height="100%" width="100%" preserveAspectRatio="xMidYMid meet" focusable="false"><defs><style>.cls{fill-rule:evenodd;} </style></defs><title>AMD 80x50 vector</title><path class="cls" d="M20.67,33.29h4.16V23.15l4.46,5h.61l4.29-5,0,10.14h4.22V16.71H34.92l-5.41,6.1-5.24-6.07h-3.6Z"></path><path class="cls" d="M49.15,30.16h-3.3V19.84c3.17,0,6.09-.36,7.54,2.86,1.33,2.95-.25,7.46-4.24,7.46Zm-7.46-13.4V33.28h7.2a10.39,10.39,0,0,0,6.45-2,7.48,7.48,0,0,0,2.73-5.76,8.25,8.25,0,0,0-1-4.59C55.46,17.75,52,16.72,48,16.72l-6.33,0Z"></path><path class="cls" d="M9.19,20.88c0,.27,2.51,6.15,2.51,6.15H6.76l2.43-6.15ZM0,33.28H4.42c.3-.63.86-2.48,1.21-3.21H13l1.3,3.21h4.42c0-.38-7.28-16.56-7.28-16.56H6.65S.15,33,0,33.28Z"></path><polygon class="cls" points="66.24 20.63 74.73 20.63 74.73 29.17 80 34.34 80 15.45 61.09 15.46 66.24 20.63 66.24 20.63"></polygon><polygon class="cls" points="60.92 27 60.86 34.55 60.86 34.55 68.43 34.55 68.43 34.55 73.83 29.1 66.27 29.1 66.27 21.7 60.92 27 60.92 27 60.92 27"></polygon></svg>