<svg id="Capa_1" data-name="Capa 1" xmlns="http://www.w3.org/2000/svg" viewBox="0 0 80 50" fit="" height="100%" width="100%" preserveAspectRatio="xMidYMid meet" focusable="false"><defs><style>.cls-1{fill:#00c7fd;}.cls-2{fill:#0068b5;} </style></defs><title>Intel 80x50 vector</title><rect class="cls-1" y="9.93" width="5.79" height="5.79"></rect><path class="cls-2" d="M5.64,40.07V19.23H.15V40.07ZM42,40.28V35.17A13.19,13.19,0,0,1,40,35a2.28,2.28,0,0,1-1.29-.57,2.24,2.24,0,0,1-.57-1.24,12.26,12.26,0,0,1-.13-2V23.93h4v-4.7h-4V11.11H32.56V31.26A17.91,17.91,0,0,0,33,35.55a6,6,0,0,0,1.46,2.77,6,6,0,0,0,2.68,1.5,16,16,0,0,0,4.19.46Zm31.46-.21V9.51H68V40.07ZM27.27,21.28a8.32,8.32,0,0,0-6.39-2.47,8.12,8.12,0,0,0-3.6.8,7.73,7.73,0,0,0-2.72,2.22l-.3.39v-3H8.84V40.07H14.3V29.74c0-.13,0-.25,0-.38A6.21,6.21,0,0,1,15.76,25a4.72,4.72,0,0,1,3.48-1.48A4.45,4.45,0,0,1,22.83,25,6.12,6.12,0,0,1,24,29h0v0h0v11h5.54V28.24A9.93,9.93,0,0,0,27.27,21.28Zm37.87,8.33a11.11,11.11,0,0,0-.8-4.21A10.69,10.69,0,0,0,62.13,22a10.08,10.08,0,0,0-3.39-2.32,11.25,11.25,0,0,0-4.36-.83,10.72,10.72,0,0,0-4.23.85A11,11,0,0,0,46.71,22a11.1,11.1,0,0,0-2.32,3.44,10.72,10.72,0,0,0-.85,4.23,11,11,0,0,0,.81,4.23,10.53,10.53,0,0,0,2.25,3.44,10.72,10.72,0,0,0,3.48,2.32,11.67,11.67,0,0,0,4.47.85,11.82,11.82,0,0,0,9.27-4.09l-4-3a7.24,7.24,0,0,1-5.28,2.33,6.34,6.34,0,0,1-3.79-1.06,5.29,5.29,0,0,1-2-2.9l0-.19H65.14ZM48.81,27.7c0-1.53,1.75-4.19,5.53-4.2s5.53,2.66,5.53,4.19Z"></path><path class="cls-2" d="M79.84,10.75a2.13,2.13,0,0,0-1.08-1.08A1.92,1.92,0,0,0,78,9.51a1.89,1.89,0,0,0-.79.16,2.07,2.07,0,0,0-.65.44,2,2,0,0,0-.43.64,2,2,0,0,0,0,1.58,1.9,1.9,0,0,0,.43.64,2.07,2.07,0,0,0,.65.44,1.89,1.89,0,0,0,.79.16,1.92,1.92,0,0,0,.79-.16A2,2,0,0,0,79.4,13a2,2,0,0,0,.44-2.22Zm-.33,1.44a1.71,1.71,0,0,1-.89.89,1.61,1.61,0,0,1-.65.13,1.57,1.57,0,0,1-.65-.13,1.82,1.82,0,0,1-.54-.36,1.69,1.69,0,0,1-.35-1.83,1.58,1.58,0,0,1,.35-.53,1.82,1.82,0,0,1,.54-.36A1.57,1.57,0,0,1,78,9.87a1.61,1.61,0,0,1,.65.13,1.71,1.71,0,0,1,.89.89,1.69,1.69,0,0,1,0,1.3Zm-1.16-.49a.55.55,0,0,0,.39-.18.58.58,0,0,0,.16-.45.64.64,0,0,0-.2-.52.9.9,0,0,0-.62-.18h-.89v2.32h.42v-.95h.31l.58.95H79Zm-.23-.33h-.51v-.65h.51l.18,0a.31.31,0,0,1,.13.1.35.35,0,0,1,0,.36.41.41,0,0,1-.13.1Z"></path></svg>